<svg xmlns="http://www.w3.org/2000/svg" xmlns:xlink="http://www.w3.org/1999/xlink" viewBox="0 88 440 72">
  <defs>
    <style>
      .cls-1 {
        clip-path: url(#clip-カスタムサイズ_1);
      }

      .cls-2 {
        stroke: rgba(0,0,0,0);
      }
    </style>
    <clipPath id="clip-カスタムサイズ_1">
      <rect y="88" width="440" height="72"/>
    </clipPath>
  </defs>
  <g id="カスタムサイズ_1" data-name="カスタムサイズ – 1" class="cls-1">
    <path id="パス_1" data-name="パス 1" class="cls-2" d="M24.573-77.495l-8.358,22.11H32.931ZM-.12-33.2H6.566L27.081-87.6H28.9L49.571-33.2h6.762v1.064h-23.4V-33.2h8.434L33.387-54.321H15.76L7.782-33.2h8.434v1.064H-.12Zm58.5,0h5.85V-63.666h-5.85V-64.73h5.85v-4.027a34.347,34.347,0,0,1,.266-4.6,21.766,21.766,0,0,1,.722-3.419,13.683,13.683,0,0,1,1.064-2.583,12.771,12.771,0,0,1,1.368-2.013,19.231,19.231,0,0,1,4.939-4.369A11.655,11.655,0,0,1,78.9-87.6a11.447,11.447,0,0,1,4.293.722,9.4,9.4,0,0,1,2.925,1.786,6.825,6.825,0,0,1,1.672,2.317,5.836,5.836,0,0,1,.532,2.241,4.6,4.6,0,0,1-.836,2.659,3.165,3.165,0,0,1-2.811,1.216,6.654,6.654,0,0,1-2.241-.456,1.881,1.881,0,0,1-1.254-1.975,3.93,3.93,0,0,1,.722-2.317,3.93,3.93,0,0,0,.722-2.317,2.194,2.194,0,0,0-1.368-2.241,7.244,7.244,0,0,0-2.811-.57A6.835,6.835,0,0,0,73.048-83.8q-2.279,2.735-2.279,8.51V-64.73H80.19v1.064H70.769V-33.2h6.914v1.064h-19.3ZM82.85-64.73H88.7v-9.8q.608.228,1.14.38A7.51,7.51,0,0,0,91.663-74a6.542,6.542,0,0,0,1.975-.266,4.958,4.958,0,0,0,1.6-.874V-64.73h10.789v1.064H95.234v24.845a11.8,11.8,0,0,0,.418,3.457,5.221,5.221,0,0,0,1.1,2.051,3.3,3.3,0,0,0,1.482.95,5.656,5.656,0,0,0,1.558.228,5.342,5.342,0,0,0,4.293-1.937,9.383,9.383,0,0,0,2.089-4.445l1.064.38a17.678,17.678,0,0,1-.684,2.2,7.684,7.684,0,0,1-1.406,2.317,7.385,7.385,0,0,1-2.469,1.824,8.839,8.839,0,0,1-3.8.722q-5.7,0-7.94-2.2A8.342,8.342,0,0,1,88.7-39.5V-63.666H82.85ZM133.6-52.042a14.028,14.028,0,0,0,.152-1.975v-1.9a15.325,15.325,0,0,0-.494-4.255,6.919,6.919,0,0,0-1.368-2.659,4.832,4.832,0,0,0-2.127-1.406,8.477,8.477,0,0,0-2.7-.418,8.02,8.02,0,0,0-4.255,1.026,7.556,7.556,0,0,0-2.659,2.773,14.286,14.286,0,0,0-1.482,4.027,31.621,31.621,0,0,0-.646,4.787Zm-15.652,1.064q0,.76-.038,1.558t-.038,2.013a47.519,47.519,0,0,0,.3,5.243,15.748,15.748,0,0,0,1.33,4.939,9.205,9.205,0,0,0,3.039,3.647,9.006,9.006,0,0,0,5.357,1.444,13.317,13.317,0,0,0,5.509-.988,10.138,10.138,0,0,0,3.419-2.393,10.363,10.363,0,0,0,1.861-2.849q.608-1.444.912-2.355l1.14.228a21.82,21.82,0,0,1-.874,2.393,11.008,11.008,0,0,1-2.051,3.115,12.439,12.439,0,0,1-3.8,2.735,14.056,14.056,0,0,1-6.192,1.178,19.792,19.792,0,0,1-7.028-1.216,16.063,16.063,0,0,1-5.585-3.5,15.793,15.793,0,0,1-3.647-5.433,18.381,18.381,0,0,1-1.292-7.028,16.565,16.565,0,0,1,1.33-6.5,18.36,18.36,0,0,1,3.647-5.584,18.273,18.273,0,0,1,5.433-3.913,15.369,15.369,0,0,1,6.686-1.482,15.324,15.324,0,0,1,4.559.76,13.424,13.424,0,0,1,4.521,2.469,13.57,13.57,0,0,1,3.5,4.521,15.55,15.55,0,0,1,1.406,6.99ZM146.9-33.2h5.85V-63.666H146.9V-64.73h12.233v7.674h.152a15.468,15.468,0,0,1,.988-2.583,11.279,11.279,0,0,1,1.9-2.773,10.818,10.818,0,0,1,2.925-2.241,8.7,8.7,0,0,1,4.141-.912,7.481,7.481,0,0,1,3.039.57,6.566,6.566,0,0,1,2.127,1.444,5.307,5.307,0,0,1,1.216,2.013A7.171,7.171,0,0,1,176-59.26q0,2.507-1.14,3.343a4.376,4.376,0,0,1-2.659.836q-3.343,0-3.343-2.127a3.294,3.294,0,0,1,.152-1.1q.152-.418.342-.836a6.844,6.844,0,0,0,.342-.95,5.836,5.836,0,0,0,.152-1.52q0-2.431-2.659-2.431a4.709,4.709,0,0,0-2.583.912,9.526,9.526,0,0,0-2.545,2.659,16.711,16.711,0,0,0-1.975,4.217,18.4,18.4,0,0,0-.8,5.66v17.4h6.61v1.064H146.9Zm42.4-53.034h22.87v1.064h-7.9L219.917-41.1h.152l10.105-28.036L224.4-85.169h-6.382v-1.064h22.794v1.064H232.53L248.181-41.1h.152l15.956-44.068h-8.13v-1.064h16.26v1.064h-6.838L245.9-31H244l-13.069-36.47h-.152L217.562-31H215.51L196.135-85.169H189.3Zm85.781,37.838a35.194,35.194,0,0,0,.836,8.586,13.2,13.2,0,0,0,2.2,4.9,6.347,6.347,0,0,0,3.191,2.241,13.775,13.775,0,0,0,3.875.532,13.775,13.775,0,0,0,3.875-.532,6.348,6.348,0,0,0,3.191-2.241,13.2,13.2,0,0,0,2.2-4.9,35.194,35.194,0,0,0,.836-8.586,40.289,40.289,0,0,0-.608-7.636,14.314,14.314,0,0,0-1.861-5.015,7.183,7.183,0,0,0-3.153-2.773,11.063,11.063,0,0,0-4.483-.836,11.063,11.063,0,0,0-4.483.836,7.183,7.183,0,0,0-3.153,2.773,14.314,14.314,0,0,0-1.862,5.015A40.292,40.292,0,0,0,275.078-48.395Zm-7.6,0a14.953,14.953,0,0,1,1.634-6.914,19.209,19.209,0,0,1,4.179-5.509,19.238,19.238,0,0,1,5.7-3.609,16.261,16.261,0,0,1,6.192-1.292,16.261,16.261,0,0,1,6.192,1.292,19.238,19.238,0,0,1,5.7,3.609,19.209,19.209,0,0,1,4.179,5.509,14.953,14.953,0,0,1,1.634,6.914,15.289,15.289,0,0,1-1.52,6.724,18.848,18.848,0,0,1-3.989,5.509,18.935,18.935,0,0,1-5.66,3.723,16.438,16.438,0,0,1-6.534,1.368,16.438,16.438,0,0,1-6.534-1.368,18.936,18.936,0,0,1-5.66-3.723A18.848,18.848,0,0,1,269-41.67,15.29,15.29,0,0,1,267.48-48.395Zm40.877,15.2h5.85V-63.666h-5.85V-64.73H320.59v7.674h.152a15.47,15.47,0,0,1,.988-2.583,11.279,11.279,0,0,1,1.9-2.773,10.817,10.817,0,0,1,2.925-2.241,8.7,8.7,0,0,1,4.141-.912,7.48,7.48,0,0,1,3.039.57,6.566,6.566,0,0,1,2.127,1.444,5.308,5.308,0,0,1,1.216,2.013,7.171,7.171,0,0,1,.38,2.279q0,2.507-1.14,3.343a4.376,4.376,0,0,1-2.659.836q-3.343,0-3.343-2.127a3.294,3.294,0,0,1,.152-1.1q.152-.418.342-.836a6.85,6.85,0,0,0,.342-.95,5.837,5.837,0,0,0,.152-1.52q0-2.431-2.659-2.431a4.709,4.709,0,0,0-2.583.912,9.526,9.526,0,0,0-2.545,2.659,16.711,16.711,0,0,0-1.975,4.217,18.4,18.4,0,0,0-.8,5.66v17.4h6.61v1.064H308.357Zm31,0h5.85V-85.852h-5.85v-1.064h12.385V-50.6h.836L367.7-63.666H362.3V-64.73H374.08v1.064h-4.559L357.668-53.485,374.46-33.2h3.267v1.064h-17.1V-33.2h5.395L352.577-49.534h-.836V-33.2h4.179v1.064H339.357Zm42.928-9.573h.836a28.452,28.452,0,0,0,1.368,3.685,13.073,13.073,0,0,0,2.241,3.419,11.048,11.048,0,0,0,3.457,2.545,11.3,11.3,0,0,0,4.939.988,6.852,6.852,0,0,0,4.331-1.482q1.9-1.482,1.9-4.825,0-2.887-1.482-4.065a11.6,11.6,0,0,0-3.457-1.861l-5.926-2.051q-1.14-.38-2.469-.95a8.951,8.951,0,0,1-2.469-1.6,7.78,7.78,0,0,1-1.862-2.621,10.011,10.011,0,0,1-.722-4.1,9.368,9.368,0,0,1,.836-3.951,10.218,10.218,0,0,1,2.279-3.191,10.19,10.19,0,0,1,3.457-2.127,12.276,12.276,0,0,1,4.369-.76,11.1,11.1,0,0,1,2.7.266q1.026.266,1.785.532t1.368.532a3.583,3.583,0,0,0,1.444.266,1.326,1.326,0,0,0,1.216-.608h.836v8.662h-.836A32.65,32.65,0,0,0,401.2-59.3a12.9,12.9,0,0,0-1.634-2.773,6.625,6.625,0,0,0-2.355-1.9,7.477,7.477,0,0,0-3.305-.684,8.761,8.761,0,0,0-5.66,1.634,5.338,5.338,0,0,0-2.013,4.369,4.281,4.281,0,0,0,1.71,3.685A17.919,17.919,0,0,0,393-52.649l5.547,1.824a15.989,15.989,0,0,1,5.85,3.343,7.329,7.329,0,0,1,2.279,5.622,10.667,10.667,0,0,1-.8,4.027,9.771,9.771,0,0,1-2.355,3.457,12,12,0,0,1-3.8,2.393,13.522,13.522,0,0,1-5.129.912,13.012,13.012,0,0,1-3.077-.342q-1.406-.342-2.583-.722t-2.165-.722a5.607,5.607,0,0,0-1.824-.342,1.787,1.787,0,0,0-1.216.342,3.178,3.178,0,0,0-.608.722h-.836Zm31.987,7.446a3.881,3.881,0,0,1,1.178-2.849,3.881,3.881,0,0,1,2.849-1.178,3.881,3.881,0,0,1,2.849,1.178,3.881,3.881,0,0,1,1.178,2.849,3.881,3.881,0,0,1-1.178,2.849A3.881,3.881,0,0,1,418.3-31.3a3.881,3.881,0,0,1-2.849-1.178A3.881,3.881,0,0,1,414.273-35.326Z" transform="translate(9.12 183.6)"/>
  </g>
</svg>
