<svg xmlns="http://www.w3.org/2000/svg" xmlns:xlink="http://www.w3.org/1999/xlink" viewBox="0 88 160 160">
  <defs>
    <style>
      .cls-1 {
        clip-path: url(#clip-カスタムサイズ_1);
      }

      .cls-2 {
        fill: #fff;
        stroke: #000;
      }

      .cls-3 {
        stroke: rgba(0,0,0,0);
      }

      .cls-4 {
        stroke: none;
      }

      .cls-5 {
        fill: none;
      }
    </style>
    <clipPath id="clip-カスタムサイズ_1">
      <rect y="88" width="160" height="160"/>
    </clipPath>
  </defs>
  <g id="カスタムサイズ_1" data-name="カスタムサイズ – 1" class="cls-1">
    <g id="楕円形_1" data-name="楕円形 1" class="cls-2" transform="translate(1 89)">
      <circle class="cls-4" cx="79" cy="79" r="79"/>
      <circle class="cls-5" cx="79" cy="79" r="78.5"/>
    </g>
    <path id="パス_2" data-name="パス 2" class="cls-3" d="M-1.01-71.912h30.4V-70.5h-10.5l20.806,58.58h.2L53.328-49.187,45.652-70.5H37.168v-1.414h30.3V-70.5H56.459l20.806,58.58h.2L98.677-70.5H87.87v-1.414h21.614V-70.5h-9.09L74.235,1.515H71.71L54.338-46.965h-.2L36.562,1.515H33.835L8.08-70.5H-1.01Z" transform="translate(39 201)"/>
    <path id="パス_1" data-name="パス 1" class="cls-3" d="M32.724-60.3,21.614-30.906h22.22ZM-.1-1.414H8.787L36.057-73.73h2.424L65.953-1.414h8.989V0H43.834V-1.414H55.045L44.44-29.492H21.008L10.4-1.414H21.614V0H-.1Z" transform="translate(10 204)"/>
  </g>
</svg>
